<svg width="20" height="20" viewBox="0 0 20 20" fill="none" xmlns="http://www.w3.org/2000/svg">
<path fill-rule="evenodd" clip-rule="evenodd" d="M15.4225 0.0936367C15.7748 0.257847 16 0.611323 16 1.00001V5.00001H14V3.14542L9.51803 6.90871C9.3379 7.05996 9.11021 7.14287 8.875 7.14287H5V13H6V15H4C3.44772 15 3 14.5523 3 14V6.14287C3 5.59059 3.44772 5.14287 4 5.14287H8.51085L14.357 0.234176C14.6546 -0.0157651 15.0702 -0.0705737 15.4225 0.0936367ZM14 16.8546V8.50001H16V19C16 19.3887 15.7748 19.7422 15.4225 19.9064C15.0702 20.0706 14.6546 20.0158 14.357 19.7659L8.23197 14.623L9.51803 13.0913L14 16.8546Z" fill="black"/>
<path fill-rule="evenodd" clip-rule="evenodd" d="M0.292908 18.293L18.2929 0.292969L19.7071 1.70718L1.70712 19.7072L0.292908 18.293Z" fill="black"/>
</svg>
